<?xml version="1.0" standalone="no"?>
<!DOCTYPE svg PUBLIC "-//W3C//DTD SVG 20010904//EN"
 "http://www.w3.org/TR/2001/REC-SVG-20010904/DTD/svg10.dtd">
<svg version="1.0" xmlns="http://www.w3.org/2000/svg"
 width="1089.000000pt" height="1089.000000pt" viewBox="0 0 1089.000000 1089.000000"
 preserveAspectRatio="xMidYMid meet">
<metadata>
Created by potrace 1.15, written by Peter Selinger 2001-2017
</metadata>
<g transform="translate(0.000000,1089.000000) scale(0.100000,-0.100000)"
fill="#000000" stroke="none">
<path d="M6401 7149 c-403 -30 -728 -206 -966 -524 l-60 -80 -3 263 -2 262
-280 0 -280 0 0 -1790 0 -1790 295 0 295 0 2 1163 3 1162 23 80 c55 190 134
327 262 456 197 198 390 279 670 279 149 0 238 -17 338 -65 142 -67 245 -204
291 -386 38 -148 41 -268 41 -1496 l0 -1193 295 0 294 0 4 1213 3 1212 22 80
c87 313 300 523 612 605 119 31 372 39 490 16 249 -51 404 -205 463 -460 21
-90 21 -111 24 -1378 l4 -1288 294 0 295 0 0 1373 c0 817 -5 1402 -10 1446
-54 412 -300 687 -706 791 -157 40 -286 53 -499 47 -203 -5 -270 -15 -405 -58
-92 -29 -239 -100 -322 -155 -95 -63 -242 -205 -308 -298 -53 -74 -70 -89 -70
-63 0 21 -67 153 -109 215 -49 73 -143 161 -220 206 -141 82 -338 141 -506
151 -49 3 -108 7 -130 9 -22 1 -87 -1 -144 -5z"/>
<path d="M2215 7134 c-212 -28 -422 -87 -555 -154 -240 -121 -433 -325 -531
-558 -38 -93 -77 -260 -85 -374 l-7 -88 295 0 295 0 7 63 c17 164 82 314 176
401 144 133 393 206 704 206 252 0 391 -25 527 -97 173 -90 257 -233 267 -450
5 -136 -11 -201 -69 -267 -107 -121 -275 -176 -724 -236 -359 -48 -755 -131
-940 -198 -160 -57 -300 -142 -406 -248 -199 -196 -279 -428 -266 -769 8 -212
39 -332 125 -478 155 -262 417 -407 825 -458 158 -19 473 -7 623 25 317 67
561 194 766 399 92 91 98 95 98 68 0 -15 7 -68 15 -117 46 -266 202 -384 505
-384 143 1 249 17 335 52 l60 24 5 232 c3 152 2 232 -5 232 -5 -1 -37 -7 -70
-15 -104 -25 -184 -16 -231 27 -48 43 -47 36 -54 1238 -6 1111 -7 1137 -28
1230 -40 178 -144 347 -284 457 -170 136 -388 211 -707 243 -144 14 -544 11
-666 -6z m1092 -2146 c-4 -379 -7 -397 -73 -534 -119 -242 -385 -429 -704
-494 -131 -27 -346 -37 -461 -21 -197 26 -301 71 -405 175 -79 79 -108 131
-129 232 -18 85 -18 137 0 237 43 243 216 394 555 487 41 11 190 36 330 55
555 77 682 103 800 164 41 21 79 39 83 40 5 0 7 -153 4 -341z"/>
</g>
</svg>
