<?xml version="1.0" standalone="no"?>
<!DOCTYPE svg PUBLIC "-//W3C//DTD SVG 20010904//EN"
 "http://www.w3.org/TR/2001/REC-SVG-20010904/DTD/svg10.dtd">
<svg version="1.0" xmlns="http://www.w3.org/2000/svg"
 width="377.000000pt" height="377.000000pt" viewBox="0 0 377.000000 377.000000"
 preserveAspectRatio="xMidYMid meet">
<metadata>
Created by potrace 1.15, written by Peter Selinger 2001-2017
</metadata>
<g transform="translate(0.000000,377.000000) scale(0.100000,-0.100000)"
fill="#000000" stroke="none">
<path d="M1606 3450 c-434 -68 -746 -332 -889 -750 -41 -121 -51 -193 -51
-380 0 -186 14 -294 60 -462 13 -48 24 -101 24 -117 0 -44 -32 -123 -73 -179
-58 -78 -80 -145 -81 -237 0 -93 20 -149 77 -212 58 -64 109 -81 301 -101
l170 -17 19 -32 c27 -47 45 -119 67 -275 20 -140 31 -175 70 -216 29 -31 65
-44 124 -43 57 0 80 17 108 79 l20 44 20 -42 c25 -50 79 -79 145 -80 56 0 98
37 122 107 l18 52 17 -50 c10 -28 33 -66 51 -85 29 -31 38 -34 87 -34 68 0
114 28 144 87 l22 42 5 -28 c8 -38 58 -87 97 -95 92 -18 173 57 209 192 7 23
16 92 22 153 9 112 30 181 62 207 11 10 57 14 149 16 147 3 203 16 280 65 146
93 167 318 46 502 l-42 64 -4 116 c-3 97 0 136 23 245 36 177 45 398 20 545
-68 410 -289 695 -655 843 -147 60 -254 77 -505 81 -121 2 -246 0 -279 -5z
m544 -124 c356 -74 613 -284 730 -598 51 -138 64 -224 64 -413 0 -150 -4 -196
-23 -275 -34 -144 -42 -249 -30 -369 9 -91 14 -109 38 -140 93 -119 111 -271
40 -347 -55 -60 -183 -90 -319 -78 -156 15 -231 -79 -250 -311 -10 -122 -22
-174 -52 -222 -40 -66 -63 -37 -73 87 -12 154 -35 200 -98 200 -61 0 -91 -55
-103 -188 -4 -42 -13 -92 -20 -110 -15 -38 -45 -43 -62 -9 -18 33 -39 126 -47
201 -6 54 -12 70 -33 86 -25 20 -66 26 -97 14 -26 -10 -45 -60 -55 -144 -17
-153 -42 -199 -82 -151 -13 17 -18 40 -18 90 -1 138 -33 201 -101 201 -66 0
-85 -28 -98 -145 -13 -123 -26 -165 -52 -165 -30 0 -56 54 -63 133 -19 207
-73 375 -131 413 -18 12 -80 22 -206 35 -195 20 -228 31 -268 88 -56 79 -45
172 35 292 89 135 104 228 60 387 -38 136 -56 276 -56 433 0 166 11 246 46
344 136 378 399 601 790 670 103 18 427 12 534 -9z"/>
<path d="M1199 2035 c-77 -21 -137 -56 -188 -110 -128 -136 -121 -342 18 -484
84 -86 196 -131 329 -131 232 0 393 145 394 356 0 172 -139 329 -329 369 -82
18 -162 18 -224 0z m263 -132 c65 -29 138 -100 162 -158 52 -124 -27 -268
-168 -310 -84 -25 -192 -15 -267 25 -40 22 -110 93 -130 133 -70 137 7 288
171 334 63 18 162 8 232 -24z"/>
<path d="M2270 2032 c-208 -55 -339 -235 -309 -426 29 -181 182 -296 393 -296
181 0 347 103 411 255 9 22 19 74 22 115 7 97 -19 168 -87 243 -101 111 -264
152 -430 109z m254 -121 c174 -77 205 -267 63 -398 -52 -48 -72 -59 -135 -79
-132 -40 -280 6 -348 109 -39 58 -45 144 -15 208 41 86 135 158 235 179 57 12
150 4 200 -19z"/>
<path d="M1771 1522 c-104 -105 -136 -166 -136 -257 0 -94 24 -141 88 -174 43
-21 52 -22 93 -12 35 9 55 9 81 0 92 -30 193 65 193 182 0 49 -28 119 -74 183
-44 62 -141 156 -160 156 -5 0 -43 -35 -85 -78z m176 -180 c39 -65 31 -152
-13 -152 -7 0 -27 21 -45 46 l-32 46 -28 -46 c-16 -25 -36 -46 -43 -46 -19 0
-46 39 -46 65 1 32 37 103 77 150 l38 44 33 -32 c19 -18 45 -51 59 -75z"/>
</g>
</svg>
