<?xml version="1.0" standalone="no"?>
<!DOCTYPE svg PUBLIC "-//W3C//DTD SVG 20010904//EN"
 "http://www.w3.org/TR/2001/REC-SVG-20010904/DTD/svg10.dtd">
<svg version="1.0" xmlns="http://www.w3.org/2000/svg"
 width="256.000000pt" height="256.000000pt" viewBox="0 0 256.000000 256.000000"
 preserveAspectRatio="xMidYMid meet">
<metadata>
Created by potrace 1.15, written by Peter Selinger 2001-2017
</metadata>
<g transform="translate(0.000000,256.000000) scale(0.100000,-0.100000)"
fill="#000000" stroke="none">
<path d="M2133 1861 c-56 -26 -125 -92 -181 -171 -25 -36 -47 -67 -49 -69 -2
-3 -11 6 -20 20 -108 154 -256 204 -398 134 -73 -35 -162 -122 -196 -191 l-26
-52 -43 50 c-162 188 -406 194 -548 14 l-21 -27 -51 39 c-105 80 -196 109
-285 90 -122 -25 -186 -99 -249 -289 -51 -152 -66 -227 -66 -334 0 -69 4 -99
19 -125 22 -42 74 -80 109 -80 42 0 108 46 143 100 29 45 36 50 68 50 35 0
110 29 138 52 8 6 40 12 72 12 34 1 68 9 82 17 23 16 24 15 46 -33 27 -59 114
-148 202 -207 87 -59 233 -127 322 -150 41 -11 81 -22 90 -26 11 -4 55 23 135
83 167 125 288 235 363 329 63 81 63 81 83 61 30 -30 84 -49 136 -48 26 1 67
-6 91 -15 50 -18 87 -14 144 18 l37 21 16 -22 c27 -39 100 -82 139 -82 48 0
91 24 110 60 20 38 20 196 1 271 -23 86 -145 366 -180 412 -75 98 -151 127
-233 88z m69 -110 c48 -10 62 -19 88 -51 43 -54 100 -181 154 -341 62 -181 60
-229 -6 -229 -52 0 -150 114 -227 268 -17 35 -38 65 -47 69 -19 7 -44 -14 -44
-38 0 -33 40 -125 81 -189 22 -34 38 -64 35 -67 -2 -3 -22 -7 -44 -10 -32 -4
-43 -1 -60 17 -11 12 -26 19 -32 15 -18 -11 -51 25 -77 83 -16 37 -28 52 -40
50 -29 -6 -38 -33 -27 -78 6 -22 9 -40 7 -40 -3 0 -19 10 -36 22 -18 12 -33
22 -35 23 -1 1 7 23 18 48 25 55 35 156 23 212 -9 39 -8 42 51 114 68 83 135
144 151 137 6 -2 36 -9 67 -15z m-514 -56 c50 -21 79 -50 110 -110 25 -45 27
-60 27 -160 0 -105 -2 -114 -34 -179 -37 -76 -132 -183 -239 -269 -37 -29
-111 -89 -166 -132 -54 -44 -104 -84 -110 -89 -18 -13 -286 145 -394 233 -62
49 -119 134 -143 210 -23 73 -28 212 -10 270 28 89 99 146 197 157 129 16 225
-63 292 -238 30 -78 51 -100 76 -79 11 9 16 30 16 63 0 51 29 151 57 197 41
65 99 112 163 132 43 13 119 10 158 -6z m-1238 -101 c41 -13 99 -38 128 -54
52 -31 53 -31 45 -68 -10 -48 -10 -183 0 -248 8 -50 8 -51 -20 -62 -65 -24
-63 -24 -47 13 27 66 12 165 -25 165 -16 0 -31 -26 -31 -54 0 -54 -20 -106
-56 -146 -33 -36 -89 -68 -100 -57 -3 2 2 29 10 58 8 30 20 83 26 118 10 54 9
66 -4 79 -27 27 -44 5 -77 -100 -40 -132 -57 -165 -113 -216 -90 -83 -118 -47
-91 122 33 217 86 363 161 445 35 40 40 42 78 35 23 -3 75 -17 116 -30z"/>
</g>
</svg>
