<?xml version="1.0" standalone="no"?>
<!DOCTYPE svg PUBLIC "-//W3C//DTD SVG 20010904//EN"
 "http://www.w3.org/TR/2001/REC-SVG-20010904/DTD/svg10.dtd">
<svg version="1.0" xmlns="http://www.w3.org/2000/svg"
 width="1089.000000pt" height="1089.000000pt" viewBox="0 0 1089.000000 1089.000000"
 preserveAspectRatio="xMidYMid meet">
<metadata>
Created by potrace 1.15, written by Peter Selinger 2001-2017
</metadata>
<g transform="translate(0.000000,1089.000000) scale(0.100000,-0.100000)"
fill="#000000" stroke="none">
<path d="M2544 7429 c-294 -21 -590 -122 -761 -259 -74 -59 -155 -155 -204
-239 -19 -33 -37 -61 -41 -61 -5 0 -8 108 -8 240 l0 240 -295 0 -295 0 0
-2470 0 -2470 295 0 295 0 0 920 c0 506 3 920 8 920 4 0 20 -21 37 -48 48 -76
160 -186 253 -250 190 -130 378 -199 642 -238 143 -20 436 -15 580 11 452 82
824 354 1048 765 110 203 189 475 222 770 14 126 14 448 0 580 -85 792 -531
1377 -1175 1540 -173 44 -406 63 -601 49z m345 -548 c527 -134 843 -663 818
-1371 -25 -706 -309 -1158 -800 -1273 -125 -29 -400 -30 -527 -3 -363 78 -652
347 -773 721 -69 212 -92 367 -91 615 1 219 21 371 76 554 120 405 409 692
772 767 128 26 403 21 525 -10z"/>
<path d="M6621 7429 c-403 -30 -728 -206 -966 -524 l-60 -80 -3 263 -2 262
-280 0 -280 0 0 -1790 0 -1790 295 0 295 0 2 1163 3 1162 23 80 c55 190 134
327 262 456 197 198 390 279 670 279 149 0 238 -17 338 -65 142 -67 245 -204
291 -386 38 -148 41 -268 41 -1496 l0 -1193 295 0 294 0 4 1213 3 1212 22 80
c87 313 300 523 612 605 119 31 372 39 490 16 249 -51 404 -205 463 -460 21
-90 21 -111 24 -1378 l4 -1288 294 0 295 0 0 1373 c0 817 -5 1402 -10 1446
-54 412 -300 687 -706 791 -157 40 -286 53 -499 47 -203 -5 -270 -15 -405 -58
-92 -29 -239 -100 -322 -155 -95 -63 -242 -205 -308 -298 -53 -74 -70 -89 -70
-63 0 21 -67 153 -109 215 -49 73 -143 161 -220 206 -141 82 -338 141 -506
151 -49 3 -108 7 -130 9 -22 1 -87 -1 -144 -5z"/>
</g>
</svg>
